# xmcd
#
# Track frame offsets: 
#        150
#        12617
#        25442
#        37530
#        45747
#        55700
#        67607
#        84457
#        98220
#        111360
#        123155
#        137305
#        151797
#        164855
#        181435
#        195110
#        208040
#        225082
#        249217
#        263222
#        278385
#        296317
#        316372
#        331582
#
# Disc length: 4707 seconds
#
# Revision: 6
# Processed by: cddbd v1.5.2PL0 Copyright (c) Steve Scherf et al.
# Submitted via: ExactAudioCopyFreeDBPlugin 1.0
#
DISCID=09126118,2a126118
DTITLE=Johnny Cash - Wanted Man (Best Of)
DYEAR=2000
DGENRE=Country
TTITLE0=I walk the line
TTITLE1=Folsom prision blues
TTITLE2=Give my love to rose
TTITLE3=Guess things happen that way
TTITLE4=Ballad of a teenage queen
TTITLE5=I still miss someone
TTITLE6=A boy named sue
TTITLE7=Don't take your guns to town
TTITLE8=San Quentin
TTITLE9=Ring of fire
TTITLE10=Orange Blossom special (with C McCoy, Boots Randolph and The Ca
TTITLE10=rter Family)
TTITLE11=No expectations
TTITLE12=Man in black
TTITLE13=Girl of the North Country (with Bob Dylan)
TTITLE14=It ain't me babe
TTITLE15=Wanted man
TTITLE16=(Ghost) Riders in the sky
TTITLE17=Highway patrolman
TTITLE18=The long black veil
TTITLE19=Rockabilly blues (Texas 1955)
TTITLE20=Hidden shame
TTITLE21=Let him roll
TTITLE22=The night Hank Williams came to town
TTITLE23=The wanderer (with U2)
EXTD=Columbia-11.02.2000 YEAR: 2000
EXTT0=
EXTT1=
EXTT2=
EXTT3=
EXTT4=
EXTT5=
EXTT6=
EXTT7=
EXTT8=
EXTT9=
EXTT10=
EXTT11=
EXTT12=
EXTT13=
EXTT14=
EXTT15=
EXTT16=
EXTT17=
EXTT18=
EXTT19=
EXTT20=
EXTT21=
EXTT22=
EXTT23=
PLAYORDER=
